<?xml version="1.0" encoding="utf-8"?>
<!-- Generator: Adobe Illustrator 24.2.1, SVG Export Plug-In . SVG Version: 6.00 Build 0)  -->
<svg version="1.1" id="Layer_1" xmlns="http://www.w3.org/2000/svg" xmlns:xlink="http://www.w3.org/1999/xlink" x="0px" y="0px"
	 viewBox="0 0 512 512" style="enable-background:new 0 0 512 512;" xml:space="preserve">
<style type="text/css">
	.st0{fill:#1A2947;}
</style>
<g>
	<path class="st0" d="M269.1,252.9c0-10.2-5.5-13.6-10.6-14.4c0-0.1,0-0.1,0-0.2c0-1.3-1.1-2.3-2.5-2.3c-1.4,0-2.5,1-2.5,2.3
		c0,0.1,0,0.1,0,0.2c-5.1,0.8-10.6,4.3-10.6,14.4c0,11.9-2.9,13.1-6.9,16.5h40C272.1,266,269.1,264.7,269.1,252.9z"/>
	<path class="st0" d="M256,276c2.8,0,5.1-2.1,5.4-4.5h-10.8C250.9,273.9,253.2,276,256,276z"/>
</g>
</svg>
