<svg xmlns="http://www.w3.org/2000/svg" viewBox="0 0 64 64" width="64px" height="64px"><linearGradient id="fZd82RbVhr0jNHl_9uqsxa" x1="32" x2="32" y1="8.66" y2="56.117" gradientUnits="userSpaceOnUse"><stop offset="0" stop-color="#1a6dff"/><stop offset="1" stop-color="#c822ff"/></linearGradient><path fill="url(#fZd82RbVhr0jNHl_9uqsxa)" d="M51,8H13c-2.757,0-5,2.243-5,5v38c0,2.757,2.243,5,5,5h38c2.757,0,5-2.243,5-5V13	C56,10.243,53.757,8,51,8z M10,51V13c0-1.654,1.346-3,3-3h38c1.654,0,3,1.346,3,3v10H25c-1.103,0-2,0.897-2,2v14	c0,1.103,0.897,2,2,2h13v13H13C11.346,54,10,52.654,10,51z M51,54H40V41c0-1.103-0.897-2-2-2H25V25h29v26C54,52.654,52.654,54,51,54	z"/><linearGradient id="fZd82RbVhr0jNHl_9uqsxb" x1="32" x2="32" y1="13.213" y2="47.162" gradientUnits="userSpaceOnUse"><stop offset="0" stop-color="#6dc7ff"/><stop offset="1" stop-color="#e6abff"/></linearGradient><path fill="url(#fZd82RbVhr0jNHl_9uqsxb)" d="M14,13c-0.552,0-1,0.448-1,1v36c0,0.552,0.448,1,1,1h20c0.552,0,1-0.448,1-1v-5 c0-0.552-0.448-1-1-1H21c-0.552,0-1-0.448-1-1V21c0-0.552,0.448-1,1-1h30v-7H14z"/><linearGradient id="fZd82RbVhr0jNHl_9uqsxc" x1="39.5" x2="39.5" y1="13.213" y2="47.162" gradientUnits="userSpaceOnUse"><stop offset="0" stop-color="#6dc7ff"/><stop offset="1" stop-color="#e6abff"/></linearGradient><path fill="url(#fZd82RbVhr0jNHl_9uqsxc)" d="M50,28H29c-0.552,0-1,0.448-1,1v6c0,0.552,0.448,1,1,1h13c0.552,0,1,0.448,1,1v13 c0,0.552,0.448,1,1,1h6c0.552,0,1-0.448,1-1V29C51,28.448,50.552,28,50,28z"/></svg>