<?xml version="1.0" encoding="utf-8"?>
<!-- Generator: Adobe Illustrator 24.2.1, SVG Export Plug-In . SVG Version: 6.00 Build 0)  -->
<svg version="1.1" id="圖層_1" xmlns="http://www.w3.org/2000/svg" xmlns:xlink="http://www.w3.org/1999/xlink" x="0px" y="0px"
	 viewBox="0 0 48 48" style="enable-background:new 0 0 48 48;" xml:space="preserve">
<style type="text/css">
	.st0{fill:#1A2947;}
</style>
<g id="Padding__x26__Artboard">
</g>
<g id="Icons">
	<g>
		<path class="st0" d="M37.6,24.3h10.7c1.5,0,2.7-1.2,2.7-2.7V6.7C51,5.2,49.8,4,48.3,4H37.6c-1.5,0-2.7,1.2-2.7,2.7v14.9
			C34.9,23.1,36.1,24.3,37.6,24.3z M41,11.5c0.7-0.3,1.4-0.8,1.9-1.2c0.5-0.5,0.9-1,1.2-1.4h0.8v10.7h-1.3v-8.3
			c-0.3,0.3-0.7,0.6-1.2,0.9c-0.5,0.3-1,0.5-1.4,0.7V11.5z"/>
		<path class="st0" d="M28.1,40.3c-0.1-0.1-0.1-0.2-0.2-0.2c-1.1-1-9.4-5.3-9.7-6.1c-0.3-0.8-0.4-1.8-0.4-2.7h2.1
			c0.2,0,0.4-0.1,0.5-0.3c0.1-0.2,0.1-0.5-0.1-0.6l0,0c2.5-0.5,2.5-0.8,2.5-1.2c0-0.2,0-0.4-1-1.7c0.1-0.4,0.2-0.8,0.3-1.2
			c0.2-0.5,0.4-1,0.5-1.5c0.2-0.8,0.2-1.6,0.1-2.4c-0.1-0.9-0.2-1.8-0.4-2.8c-0.2-1-0.6-2-1-2.9c-0.4-1-1-1.9-1.6-2.6
			c-0.7-0.8-1.4-1.5-2.2-2c-0.9-0.5-1.9-0.8-2.9-0.8c-1,0-2.1,0.2-3.3,0.8c-0.6,0-1.2,0.1-1.8,0.3c-1.1,0.4-2.2,1.1-3,2.1
			c-0.8,0.9-1.4,2.1-1.9,3.4C4.2,19,4,20.3,3.9,21.7c0,0.7,0,1.3,0.1,2c0,0.3,0.1,0.6,0.2,0.9c0.1,0.3,0.2,0.6,0.3,0.9l0.1,0.3
			c0.1,0.2,0.1,0.4,0.2,0.7C4.9,26.8,4.9,27,5,27.3c-1,1.3-1,1.5-1,1.7c0,0.4,0,0.7,2.5,1.2l0,0c-0.1,0.2-0.2,0.4-0.1,0.6
			c0.1,0.2,0.3,0.3,0.5,0.3h2c-0.1,1-0.1,1.9-0.5,2.8c-0.3,0.8-1.3,1.3-2.2,1.7c-0.2,0.1-0.4,0.2-0.6,0.3l-1,0.5
			c-0.5,0.3-1,0.5-1.5,0.8c-0.3,0.1-0.6,0.3-0.8,0.4C1.2,38.3-0.2,39-1.3,40c0,0-0.2,0.2-0.2,0.2C-2.6,41.6-3,43.1-3,43.3
			c0,0.2,0,0.3,0.1,0.5c0.1,0.1,0.3,0.2,0.5,0.2H29c0.2,0,0.3-0.1,0.5-0.2c0.1-0.1,0.2-0.3,0.1-0.5C29.5,43.1,29.2,41.6,28.1,40.3z"
			/>
		<path class="st0" d="M48.5,43.3c0-0.1,0-0.1,0-0.2c0-0.1-0.1-0.2-0.1-0.3l-0.1-0.2c0,0,0,0,0,0c0,0,0,0,0,0
			c-0.1-0.2-0.2-0.5-0.3-0.7c0,0,0-0.1,0-0.1c-0.3-0.5-0.6-1-1-1.4c0,0-0.1-0.1-0.1-0.1c-1.1-1-2.4-1.7-3.7-2.4l-0.8-0.4
			c-0.5-0.3-1-0.5-1.6-0.8l-0.9-0.5c-1-0.5-1.8-0.9-2.2-1.9l-0.1-0.2c0-0.1-0.1-0.1-0.1-0.2c-0.1-0.2-0.1-0.5-0.2-0.7
			c0-0.1,0-0.2-0.1-0.3l0-0.2c-0.1-0.5-0.1-1-0.1-1.5l0.4-0.5c0-0.1,0.1-0.1,0.1-0.2c0.1-0.1,0.1-0.3,0.2-0.4
			c0.1-0.2,0.1-0.3,0.1-0.5c0.1-0.6,0.3-1.2,0.3-1.6c0,0,0,0,0,0l0,0c0,0,0.1,0,0.1,0c0.1-0.1,0.3-0.2,0.4-0.3
			c0.1-0.1,0.1-0.1,0.2-0.2c0.2-0.2,0.3-0.4,0.4-0.7l0.1-0.5c0.1-0.2,0.1-0.3,0.1-0.5h-1.2h-0.7c-2.1,0-3.9-1.7-3.9-3.9v-8.3v-1.2
			c-3-0.5-5.1,0.9-5.7,1.4c-0.8,0.1-2.1,0.5-2.7,2.7c-0.4,1.6,0,3.4,0,3.4v0c0,1.3,0.1,2.1,0.1,2.6c-0.2,0-0.4,0.1-0.5,0.2
			c-0.6,0.6-0.5,1.4-0.4,2c0.1,0.6,0.2,1.1,0.4,1.7l0.1,0.4c0.2,0.5,0.5,1,1,1.2c0.1,0.8,0.4,2.2,0.8,2.8l0.4,0.5l0,0.2
			c-0.1,1-0.1,2-0.5,2.9c-0.4,1-0.8,1.2-1.8,1.8c-0.1,0.1-0.2,0.1-0.4,0.2c-0.2,0.1-0.3,0.3-0.3,0.5c0,0.2,0.1,0.4,0.3,0.5
			c1,0.5,1.9,1.1,2.8,1.7c1.7,1.2,2.8,2.8,3.3,4.6c0.2,0.6,0.7,0.7,1,0.7c0,0,0.1,0,0.1,0h16.1c0.3,0,0.6-0.3,0.6-0.6
			C48.5,43.4,48.5,43.3,48.5,43.3z"/>
	</g>
</g>
</svg>
