<?xml version="1.0" encoding="utf-8"?>
<!-- Generator: Adobe Illustrator 21.1.0, SVG Export Plug-In . SVG Version: 6.00 Build 0)  -->
<svg version="1.1" id="圖層_1" xmlns="http://www.w3.org/2000/svg" xmlns:xlink="http://www.w3.org/1999/xlink" x="0px" y="0px"
	 viewBox="0 0 610.6 111.6" style="enable-background:new 0 0 610.6 111.6;" xml:space="preserve">
<style type="text/css">
	.st0{fill:#F39800;}
	.st1{fill:none;stroke:#1A1A1A;stroke-width:8.0868;stroke-linecap:round;stroke-linejoin:round;stroke-miterlimit:10;}
</style>
<g>
	<g>
		<path class="st0" d="M70.7,84.5c0,9.7,0.3,17.7,0.6,23.9H51.1l-1-10.6h-0.5c-3,4.6-9.9,12.2-23.4,12.2C11,110.1,0,100.7,0,77.6
			V33.7h23.2v40.2c0,10.9,3.5,17.4,11.8,17.4c6.4,0,10.2-4.4,11.6-8.1c0.6-1.3,1-3,1-5.1V33.7h23.2V84.5z"/>
		<path class="st0" d="M161.7,0v86.1c0,8.4,0.3,17.3,0.6,22.3h-20.7l-0.9-10.9h-0.5c-4.6,8.2-13.8,12.5-23.3,12.5
			c-17.8,0-32-15.1-32-38.4c-0.1-25.2,15.5-39.8,33.5-39.8c9.3,0,16.3,3.4,19.6,8.4h0.3V0H161.7z M138.5,65.4c0-1.2,0-2.9-0.3-4.2
			c-1.3-6.2-6.4-11.3-13.6-11.3c-10.6,0-16,9.4-16,21.2c0,12.7,6.2,20.6,15.9,20.6c6.7,0,12.2-4.5,13.6-11.2
			c0.3-1.6,0.4-3.4,0.4-5.3V65.4z"/>
		<path class="st0" d="M180.3,57.6c0-9.3-0.3-17.1-0.6-23.8h20.2l1.1,10.4h0.5c3.1-4.9,10.5-12.1,23-12.1
			c15.2,0,26.7,10.3,26.7,32.2v44.2H228V67.1c0-9.6-3.4-16.2-11.7-16.2c-6.5,0-10.3,4.5-12,8.7c-0.5,1.6-0.7,3.7-0.7,5.8v43h-23.3
			V57.6z"/>
	</g>
	<g>
		<polyline class="st1" points="368.1,20.4 287.5,20.4 287.5,63.3 368.1,63.3 		"/>
		<line class="st1" x1="363.1" y1="36.1" x2="287.5" y2="36.1"/>
		<line class="st1" x1="363.1" y1="49.5" x2="287.5" y2="49.5"/>
		<line class="st1" x1="325.3" y1="20.4" x2="325.3" y2="63.3"/>
		<line class="st1" x1="321.2" y1="7.5" x2="327.8" y2="20.4"/>
		<rect x="287.5" y="79.4" class="st1" width="76.1" height="26.4"/>
		<line class="st1" x1="388" y1="12" x2="488.2" y2="12"/>
		<rect x="397.5" y="27.6" class="st1" width="80" height="17"/>
		<line class="st1" x1="424.8" y1="12" x2="424.8" y2="41.9"/>
		<line class="st1" x1="450.2" y1="12" x2="450.2" y2="43.2"/>
		<line class="st1" x1="397.5" y1="60.6" x2="477.5" y2="60.6"/>
		<line class="st1" x1="388" y1="74.9" x2="488.2" y2="74.9"/>
		<line class="st1" x1="437.5" y1="74.9" x2="437.5" y2="107.5"/>
		<path class="st1" d="M530.2,7.5c0,0-15,30.8-21.3,35.7l24.5-4.9"/>
		<path class="st1" d="M542.9,23.6c0,0-25.1,42.4-34.1,49.1c0,0,23.1-4,31.6-6.4"/>
		<path class="st1" d="M535.9,55.7c0,0,6,11.2,7,17"/>
		<path class="st1" d="M516.3,82.1c0,0-1.8,18.3-4.9,25.5"/>
		<line class="st1" x1="527.9" y1="82.1" x2="530.6" y2="104.9"/>
		<line class="st1" x1="539.1" y1="82.1" x2="542.9" y2="99.9"/>
		<path class="st1" d="M554.3,107.5V14h52.2v90.3c0,0-1.9,3.1-15.1,1.9"/>
		<line class="st1" x1="571.1" y1="23.6" x2="574.9" y2="41.9"/>
		<line class="st1" x1="590.5" y1="23.6" x2="584" y2="41.9"/>
		<line class="st1" x1="564.3" y1="41.9" x2="594" y2="41.9"/>
		<line class="st1" x1="579.1" y1="49.5" x2="584" y2="63.3"/>
		<line class="st1" x1="565.9" y1="63.3" x2="594" y2="63.3"/>
		<path class="st1" d="M571.4,63.3v18.7c0,0-0.6,7.2,9.3,7.2H594"/>
		<line class="st1" x1="415.9" y1="88.3" x2="397.5" y2="104.1"/>
		<line class="st1" x1="460.1" y1="88.3" x2="479.5" y2="105.8"/>
		<line class="st1" x1="295.6" y1="4.9" x2="269.2" y2="41.3"/>
	</g>
</g>
</svg>
