<svg id="Layer_1" enable-background="new 0 0 481.906 481.906" height="512" viewBox="0 0 481.906 481.906" width="512" xmlns="http://www.w3.org/2000/svg"><g><path d="m472.9 140.946v272c0 22.079-17.919 40-40 40h-384c-22.079 0-40-17.919-40-40v-272c0-22.09 17.91-40 40-40h384c22.09 0 40 17.91 40 40z" fill="#d1e7ff"/></g><path d="m287.35 267.396 173.83 173.83c-7.24 7.24-17.24 11.72-28.28 11.72h-384c-11.04 0-21.04-4.48-28.28-11.72l173.83-173.83 25.48 12.37c13.24 6.43 28.7 6.43 41.94 0z" fill="#b9dcff"/><g><path d="m472.9 140.946v24.674c0 11.769-10.724 20.489-22.259 18.321-108.751-20.444-218.452-4.32-315.477 46.277-5.23 2.727-11.439 2.827-16.745.25l-109.519-53.192v-36.33c0-22.091 17.909-40 40-40h384c22.091 0 40 17.909 40 40z" fill="#e8f3ff"/></g><path d="m472.9 177.276v33.5l-163 79.17-22.55-22.55z" fill="#b9dcff"/><path d="m309.9 289.946c-27.53 13.368-16.217 7.875-48.03 23.32-13.24 6.43-28.7 6.43-41.94 0-31.807-15.442-20.486-9.945-48.03-23.32l22.55-22.55 25.48 12.37c13.24 6.43 28.7 6.43 41.94 0l25.48-12.37z" fill="#a2d0ff"/><path d="m194.45 267.396-22.55 22.55-163-79.17v-33.5z" fill="#b9dcff"/><path d="m467.85 146.98c6.705 6.685 6.762 17.639 0 24.38-26.93 26.93-70.6 26.93-97.53 0l-37.38-37.38c-26.89-26.89-26.975-70.535 0-97.53 6.73-6.73 17.65-6.73 24.38 0l19.1 19.1c8.288 8.288 8.3 21.77 0 30.07s-8.3 21.77 0 30.07l12.19 12.19c8.24 8.26 21.737 8.353 30.07 0 8.3-8.3 21.77-8.3 30.07 0z" fill="#d1e7ff"/><path d="m389.046 157.417c10.34 10.488-4.7 26.564-15.711 16.785-2.157-1.915.382.555-40.395-40.222-26.892-26.892-26.973-70.537 0-97.53 11.898-11.898 31.916-.329 25.149 9.37-18.8 26.946-16.098 64.211 7.851 88.16 9.259 9.259 16.737 16.977 23.106 23.437z" fill="#e8f3ff"/><path d="m481.8 221.649v184.882c0 29.214-23.768 52.981-52.981 52.981h-375.838c-29.214 0-52.981-23.767-52.981-52.981v-263.886c0-29.214 23.767-52.981 52.981-52.981h213.019c4.971 0 9 4.029 9 9s-4.029 9-9 9h-213.019c-19.289 0-34.981 15.692-34.981 34.981v26.685l205.872 99.978c10.822 5.255 23.235 5.255 34.056 0l83.012-40.313c4.476-2.172 9.856-.306 12.027 4.164 2.172 4.471.307 9.856-4.164 12.027l-83.012 40.313c-15.817 7.682-33.964 7.683-49.783 0l-198.008-96.159v217.191c0 19.289 15.692 34.981 34.981 34.981h375.838c19.289 0 34.981-15.692 34.981-34.981v-184.882c0-4.971 4.029-9 9-9s9 4.029 9 9zm-341.223 84.558-87.712 87.712c-5.687 5.687-1.581 15.364 6.364 15.364 2.303 0 4.607-.879 6.364-2.636l87.712-87.712c3.515-3.515 3.515-9.213 0-12.728-3.514-3.514-9.214-3.514-12.728 0zm187.919 0c-3.515 3.515-3.515 9.213 0 12.728l87.712 87.712c3.516 3.515 9.213 3.515 12.729 0 3.515-3.515 3.515-9.213 0-12.728l-87.712-87.712c-3.517-3.514-9.214-3.514-12.729 0zm-1.922-165.865c-30.397-30.398-30.397-79.858 0-110.255 10.254-10.255 26.853-10.257 37.109 0l19.1 19.1c11.8 11.799 11.8 30.999 0 42.798-4.781 4.782-4.781 12.562 0 17.343l12.191 12.19c4.791 4.792 12.548 4.794 17.342 0 11.8-11.799 30.998-11.8 42.8 0l19.099 19.099c10.255 10.255 10.257 26.853-.001 37.11-30.466 30.468-79.783 30.471-110.254 0zm12.728-12.728 37.386 37.385c23.433 23.433 61.362 23.436 84.798 0 3.221-3.221 3.222-8.432.001-11.654-.101 0 1.332 1.333-19.1-19.1-4.782-4.781-12.563-4.78-17.343 0-11.827 11.828-30.971 11.829-42.799 0l-12.191-12.19c-11.799-11.8-11.799-30.999 0-42.799 4.792-4.792 4.793-12.55 0-17.343l-19.099-19.099c-3.221-3.22-8.433-3.221-11.653 0-23.38 23.379-23.38 61.42 0 84.8z" fill="#2e58ff"/></svg>